<?xml version="1.0" standalone="no"?>
<!DOCTYPE svg PUBLIC "-//W3C//DTD SVG 20010904//EN"
 "http://www.w3.org/TR/2001/REC-SVG-20010904/DTD/svg10.dtd">
<svg version="1.0" xmlns="http://www.w3.org/2000/svg"
 width="500.000000pt" height="500.000000pt" viewBox="0 0 500.000000 500.000000"
 preserveAspectRatio="xMidYMid meet">
<metadata>
Created by potrace 1.16, written by Peter Selinger 2001-2019
</metadata>
<g transform="translate(0.000000,500.000000) scale(0.100000,-0.100000)"
fill="#000000" stroke="none">
<path d="M2020 4504 c-222 -59 -568 -212 -587 -259 -5 -15 121 -213 141 -221
7 -3 41 11 76 31 113 64 304 137 500 191 35 10 35 11 35 64 -1 30 -7 90 -14
133 l-14 77 -41 -1 c-23 0 -66 -7 -96 -15z"/>
<path d="M1750 3723 c-55 -32 -134 -96 -218 -177 -82 -78 -215 -244 -209 -260
4 -11 206 -127 234 -134 6 -2 30 23 52 56 48 71 127 151 239 239 45 37 82 72
82 80 0 24 -108 214 -125 220 -5 1 -30 -9 -55 -24z"/>
<path d="M645 3388 c-89 -185 -135 -328 -174 -536 -14 -69 -15 -96 -7 -107 8
-11 43 -18 126 -25 63 -5 121 -10 127 -10 7 0 15 10 18 23 56 258 99 393 176
552 l39 80 -22 17 c-50 38 -193 118 -210 118 -14 0 -33 -28 -73 -112z"/>
<path d="M2079 2900 c-91 -48 -98 -200 -12 -264 47 -35 145 -34 193 3 24 19
24 20 6 39 -18 20 -18 20 -53 -1 -33 -19 -39 -19 -77 -6 -46 16 -66 46 -66
102 0 74 70 114 140 79 38 -18 40 -19 56 -1 20 22 14 32 -30 53 -45 21 -112
20 -157 -4z"/>
<path d="M2359 2899 c-20 -12 -44 -35 -54 -52 -25 -41 -25 -123 0 -165 37 -61
148 -92 213 -58 117 61 114 232 -5 282 -47 20 -112 17 -154 -7z m130 -43 c70
-37 65 -155 -8 -186 -60 -25 -119 11 -128 78 -7 50 9 87 47 107 32 18 55 18
89 1z"/>
<path d="M2638 2788 c-4 -175 -3 -178 32 -178 l29 0 3 94 3 95 75 -95 c62 -78
79 -94 102 -94 l28 0 0 155 0 155 -35 0 -34 0 -3 -92 -3 -91 -73 91 c-56 70
-79 92 -97 92 -24 0 -24 0 -27 -132z"/>
<path d="M3020 2902 c-52 -26 -80 -74 -80 -137 0 -139 143 -201 269 -116 12 8
11 13 -9 29 -24 20 -25 20 -49 1 -29 -23 -53 -24 -97 -3 -60 29 -70 116 -18
165 31 29 93 32 122 6 18 -16 20 -16 35 1 23 25 22 29 -15 52 -41 25 -111 26
-158 2z"/>
<path d="M3240 2765 l0 -155 114 0 c77 0 116 4 118 11 3 9 9 9 25 0 12 -6 42
-11 66 -11 38 0 49 5 71 31 25 29 26 36 26 155 l0 124 -85 0 c-84 0 -85 0 -85
-25 0 -21 5 -25 30 -26 82 -4 75 3 78 -75 5 -113 -22 -154 -79 -122 -23 14
-30 14 -39 3 -8 -10 -34 -13 -92 -12 l-81 2 -2 37 -3 37 72 3 c63 3 71 5 71
23 0 18 -8 21 -69 25 l-70 5 0 35 c0 23 5 35 15 36 8 0 44 2 80 2 65 2 66 2
61 27 -4 25 -5 25 -113 25 l-109 0 0 -155z"/>
<path d="M3770 2901 c-108 -57 -108 -218 0 -274 47 -24 135 -19 177 11 64 45
82 157 36 220 -43 60 -144 80 -213 43z m133 -51 c38 -30 52 -80 33 -123 -43
-104 -181 -75 -181 38 0 84 86 133 148 85z"/>
<path d="M1630 2405 l0 -157 93 4 c117 6 159 25 188 86 37 76 13 153 -62 197
-24 14 -57 20 -126 23 l-93 4 0 -157z m185 82 c32 -17 44 -39 45 -83 0 -32 -6
-48 -26 -68 -15 -14 -32 -26 -38 -27 -6 0 -30 -2 -53 -5 l-42 -5 -3 101 c-2
56 -1 104 1 106 7 7 93 -7 116 -19z"/>
<path d="M1960 2405 l0 -155 116 0 115 0 -3 26 c-3 26 -5 26 -83 28 l-80 1 -3
38 -3 37 70 0 c69 0 71 1 71 25 0 23 -3 24 -67 27 l-68 3 0 35 0 35 78 0 77 0
0 28 0 27 -110 0 -110 0 0 -155z"/>
<path d="M2220 2405 l0 -155 105 0 105 0 0 31 c0 29 -2 30 -31 24 -17 -4 -51
-4 -75 0 l-44 6 0 125 0 124 -30 0 -30 0 0 -155z"/>
<path d="M2450 2405 l0 -155 30 0 30 0 0 155 0 155 -30 0 -30 0 0 -155z"/>
<path d="M2560 2404 l0 -156 105 4 c124 4 158 21 163 80 3 29 -2 40 -25 58
-26 21 -27 22 -9 35 35 26 17 125 -21 111 -8 -3 -12 -2 -9 3 8 12 -45 21 -130
21 l-74 0 0 -156z"/>
<path d="M2860 2405 l0 -155 115 0 115 0 0 25 c0 26 -11 30 -60 26 -14 -1 -44
0 -67 4 -32 5 -40 10 -38 23 2 9 4 25 4 34 1 14 13 18 69 20 59 3 67 5 67 23
0 18 -8 20 -66 23 -66 3 -67 3 -73 34 -3 17 -4 34 -1 37 4 3 36 6 73 8 37 1
70 2 75 2 4 1 7 12 7 26 l0 25 -110 0 -110 0 0 -155z"/>
<path d="M3120 2404 l0 -155 33 3 c33 3 33 4 36 66 1 20 6 23 33 20 25 -2 39
-12 61 -45 l28 -43 64 0 63 0 12 35 12 35 73 0 73 0 12 -35 c10 -31 15 -35 47
-35 19 0 33 4 31 8 -1 5 -32 74 -67 155 -63 146 -64 147 -96 147 -32 0 -32 -1
-96 -149 l-64 -148 -29 39 -29 39 27 28 c52 54 42 124 -23 168 -29 19 -47 23
-117 23 l-84 0 0 -156z"/>
<path d="M3710 2406 l0 -156 30 0 30 0 0 90 c0 50 3 90 8 90 4 0 39 -40 77
-90 57 -73 75 -89 98 -90 l27 0 0 155 0 155 -30 0 -29 0 -3 -96 -3 -96 -75 94
c-57 70 -82 94 -103 96 l-27 3 0 -155z"/>
<path d="M3990 2536 c0 -23 5 -25 48 -28 l47 -3 3 -127 3 -128 29 0 29 0 3
128 3 127 48 3 c42 3 47 5 47 28 l0 24 -130 0 -130 0 0 -24z"/>
<path d="M4260 2405 l0 -155 115 0 115 0 0 25 c0 24 -2 25 -67 26 -38 1 -74 1
-80 0 -9 -1 -13 12 -13 39 l0 40 70 0 c68 0 70 1 70 25 0 24 -2 25 -70 25
l-70 0 0 41 c0 39 1 40 33 39 17 -1 53 -2 80 -1 43 1 47 3 47 26 l0 25 -115 0
-115 0 0 -155z"/>
<path d="M1141 2363 l-54 -4 6 -77 c8 -101 37 -211 92 -352 58 -147 95 -215
118 -214 25 2 206 125 210 143 2 9 -10 43 -26 76 -42 85 -85 215 -103 315 -24
131 -14 120 -107 118 -45 -1 -106 -3 -136 -5z"/>
<path d="M2360 2085 l0 -85 50 0 c37 0 55 5 70 20 24 24 24 29 5 57 -10 14
-12 24 -5 28 15 9 12 31 -6 49 -10 10 -33 16 -65 16 l-49 0 0 -85z"/>
<path d="M2672 2105 c4 -70 16 -89 60 -100 21 -5 33 -1 52 19 21 20 26 35 26
76 0 50 1 51 28 47 26 -4 27 -6 30 -75 2 -40 7 -72 12 -72 5 0 10 33 12 72 3
69 4 73 27 73 13 0 26 6 28 13 4 9 -16 12 -76 12 -45 0 -82 -3 -82 -7 -1 -5
-3 -30 -5 -57 -5 -71 -9 -78 -46 -74 l-33 3 -3 68 c-2 53 -6 67 -19 67 -13 0
-15 -11 -11 -65z"/>
<path d="M3740 2085 l0 -85 43 0 c23 0 52 3 65 6 25 7 41 49 24 66 -6 6 -8 24
-5 41 8 40 -16 57 -79 57 l-48 0 0 -85z"/>
<path d="M4040 2085 c0 -50 4 -85 10 -85 6 0 10 11 10 25 0 20 5 25 25 25 15
0 31 -9 41 -25 9 -14 23 -25 31 -25 11 0 9 7 -7 30 -12 17 -16 30 -10 30 15 0
30 43 23 68 -6 24 -43 42 -88 42 l-35 0 0 -85z"/>
<path d="M4190 2085 l0 -87 57 4 c66 6 93 30 93 83 0 53 -27 77 -93 83 l-57 4
0 -87z"/>
<path d="M750 1694 c-58 -25 -111 -51 -118 -58 -36 -35 210 -420 381 -598 35
-38 73 -68 83 -68 10 0 30 13 44 29 14 16 51 58 83 93 31 36 57 69 57 75 0 5
-21 29 -46 53 -102 100 -193 223 -294 399 -36 63 -69 116 -75 117 -5 1 -57
-18 -115 -42z"/>
</g>
</svg>
